dummy_motion.mot										
nRows=134										
nColumns=11										
name dummy_motion.mot										
datacolumns 11										
datarows 134										
range 12.51 13.84										
endheader										
time	pelvis_tilt	pelvis_tx	pelvis_ty	hip_flexion_r	knee_angle_r	ankle_angle_r	hip_flexion_l	knee_angle_l	ankle_angle_l	lumbar_extension
12.51	0	0	0	71.90642089	-47.77237922	12.58099164	71.90642089	-47.77237922	12.58099164	0
12.52	0	0	0	29.72737293	-62.84458554	6.989401715	29.72737293	-62.84458554	6.989401715	0
12.53	0	0	0	-25.8381504	-28.30512185	-28.90359548	-25.8381504	-28.30512185	-28.90359548	0
12.54	0	0	0	-13.40070338	-56.38853615	16.08157336	-13.40070338	-56.38853615	16.08157336	0
12.55	0	0	0	-43.59745152	-44.74423418	-27.77317624	-43.59745152	-44.74423418	-27.77317624	0
12.56	0	0	0	-32.57390226	-51.10622916	-38.76740653	-32.57390226	-51.10622916	-38.76740653	0
12.57	0	0	0	79.04803749	-55.68711559	-26.76557787	79.04803749	-55.68711559	-26.76557787	0
12.58	0	0	0	-43.3044156	-79.57724913	26.11624304	-43.3044156	-79.57724913	26.11624304	0
12.59	0	0	0	55.42411105	-51.84313136	-17.5883672	55.42411105	-51.84313136	-17.5883672	0
12.6	0	0	0	29.01805935	-20.5017447	-7.006869023	29.01805935	-20.5017447	-7.006869023	0
12.61	0	0	0	30.07350894	-34.37693261	-18.66888992	30.07350894	-34.37693261	-18.66888992	0
12.62	0	0	0	72.67904557	-0.96808829	11.5207975	72.67904557	-0.96808829	11.5207975	0
12.63	0	0	0	-36.98295589	-73.15016796	-36.54912925	-36.98295589	-73.15016796	-36.54912925	0
12.64	0	0	0	-9.799539541	6.795407085	-33.602574	-9.799539541	6.795407085	-33.602574	0
12.65	0	0	0	86.61187922	-68.03790404	-36.36723278	86.61187922	-68.03790404	-36.36723278	0
12.66	0	0	0	69.97153891	-26.27480564	2.782760929	69.97153891	-26.27480564	2.782760929	0
12.67	0	0	0	-46.91959206	-45.92141508	36.32078114	-46.91959206	-45.92141508	36.32078114	0
12.68	0	0	0	-40.39109503	-44.16835949	12.12779448	-40.39109503	-44.16835949	12.12779448	0
12.69	0	0	0	46.26629196	-9.057066322	-23.74120906	46.26629196	-9.057066322	-23.74120906	0
12.7	0	0	0	-23.29907321	-31.5503307	30.81500042	-23.29907321	-31.5503307	30.81500042	0
12.71	0	0	0	7.033472416	-39.19426985	-4.675639454	7.033472416	-39.19426985	-4.675639454	0
12.72	0	0	0	-31.37829348	-78.71930765	28.42741278	-31.37829348	-78.71930765	28.42741278	0
12.73	0	0	0	84.36127204	-51.35779159	29.74695744	84.36127204	-51.35779159	29.74695744	0
12.74	0	0	0	-66.18488571	-55.42875666	19.80034195	-66.18488571	-55.42875666	19.80034195	0
12.75	0	0	0	-33.84712577	-43.82766043	-20.44414569	-33.84712577	-43.82766043	-20.44414569	0
12.76	0	0	0	80.1670395	-59.30081588	-2.031967219	80.1670395	-59.30081588	-2.031967219	0
12.77	0	0	0	6.994085812	-18.49093028	-3.006537755	6.994085812	-18.49093028	-3.006537755	0
12.78	0	0	0	49.12190988	-47.19511111	-48.94025816	49.12190988	-47.19511111	-48.94025816	0
12.79	0	0	0	-67.3578899	-62.66030743	-38.05316891	-67.3578899	-62.66030743	-38.05316891	0
12.8	0	0	0	31.77546552	-69.14852191	-28.87540114	31.77546552	-69.14852191	-28.87540114	0
12.81	0	0	0	4.599974904	-21.34403086	7.623892583	4.599974904	-21.34403086	7.623892583	0
12.82	0	0	0	51.78802009	-51.91336423	-28.66891978	51.78802009	-51.91336423	-28.66891978	0
12.83	0	0	0	-20.93843394	-73.67502105	-1.596639913	-20.93843394	-73.67502105	-1.596639913	0
12.84	0	0	0	10.56802289	-21.50372195	-13.45713684	10.56802289	-21.50372195	-13.45713684	0
12.85	0	0	0	-39.70557324	-3.599160434	-43.80994116	-39.70557324	-3.599160434	-43.80994116	0
12.86	0	0	0	-57.5474243	-70.88032427	-41.45642564	-57.5474243	-70.88032427	-41.45642564	0
12.87	0	0	0	-53.1703216	-49.18759485	23.99856871	-53.1703216	-49.18759485	23.99856871	0
12.88	0	0	0	-33.09542826	-60.9532736	8.258289425	-33.09542826	-60.9532736	8.258289425	0
12.89	0	0	0	69.59655634	-71.79148201	33.17931515	69.59655634	-71.79148201	33.17931515	0
12.9	0	0	0	-39.65646491	-57.26445271	-2.965602981	-39.65646491	-57.26445271	-2.965602981	0
12.91	0	0	0	2.900277642	-61.36779033	-32.69553664	2.900277642	-61.36779033	-32.69553664	0
12.92	0	0	0	-64.63539147	-24.55514378	-14.25642118	-64.63539147	-24.55514378	-14.25642118	0
12.93	0	0	0	77.8176536	0.266386191	-30.93675258	77.8176536	0.266386191	-30.93675258	0
12.94	0	0	0	89.92884863	-15.52293131	-0.486255613	89.92884863	-15.52293131	-0.486255613	0
12.95	0	0	0	45.29548721	-2.13015335	27.37479594	45.29548721	-2.13015335	27.37479594	0
12.96	0	0	0	-41.26776666	-4.55761111	-19.33873495	-41.26776666	-4.55761111	-19.33873495	0
12.97	0	0	0	19.93312953	-78.23893377	-17.24185953	19.93312953	-78.23893377	-17.24185953	0
12.98	0	0	0	42.96379661	-50.18816972	-6.188065717	42.96379661	-50.18816972	-6.188065717	0
12.99	0	0	0	40.30271795	-74.93719381	6.489731455	40.30271795	-74.93719381	6.489731455	0
13	0	0	0	61.69184465	-19.46190362	35.98164546	61.69184465	-19.46190362	35.98164546	0
13.01	0	0	0	-3.06531869	-58.5727359	-48.7294359	-3.06531869	-58.5727359	-48.7294359	0
13.02	0	0	0	-59.76751747	-37.2558791	-26.8886721	-59.76751747	-37.2558791	-26.8886721	0
13.03	0	0	0	19.67031193	-75.04249126	-10.34011514	19.67031193	-75.04249126	-10.34011514	0
13.04	0	0	0	45.67340569	-4.356719696	-3.116639822	45.67340569	-4.356719696	-3.116639822	0
13.05	0	0	0	0.885134539	-26.01125375	9.152385225	0.885134539	-26.01125375	9.152385225	0
13.06	0	0	0	-8.787189636	-54.84921625	39.10055538	-8.787189636	-54.84921625	39.10055538	0
13.07	0	0	0	-61.83361835	6.853914988	7.679901075	-61.83361835	6.853914988	7.679901075	0
13.08	0	0	0	-2.711302708	-72.10395045	-31.35264952	-2.711302708	-72.10395045	-31.35264952	0
13.09	0	0	0	-47.8447778	-75.77908382	-12.96064121	-47.8447778	-75.77908382	-12.96064121	0
13.1	0	0	0	-12.88699322	-24.41374951	20.63898619	-12.88699322	-24.41374951	20.63898619	0
13.11	0	0	0	75.74329367	7.165460407	9.419629301	75.74329367	7.165460407	9.419629301	0
13.12	0	0	0	-27.81248511	-68.63006899	-45.66955418	-27.81248511	-68.63006899	-45.66955418	0
13.13	0	0	0	-41.49456489	-46.57359018	24.94493749	-41.49456489	-46.57359018	24.94493749	0
13.14	0	0	0	18.60165933	-55.36996315	-30.39755712	18.60165933	-55.36996315	-30.39755712	0
13.15	0	0	0	-65.38963942	-68.37902695	-22.04259553	-65.38963942	-68.37902695	-22.04259553	0
13.16	0	0	0	-45.86619836	-45.26119996	-24.61006128	-45.86619836	-45.26119996	-24.61006128	0
13.17	0	0	0	-12.58938051	-51.81260374	24.17508112	-12.58938051	-51.81260374	24.17508112	0
13.18	0	0	0	54.96667217	-3.084324394	-0.347597906	54.96667217	-3.084324394	-0.347597906	0
13.19	0	0	0	-31.97244516	-8.616091913	12.01914374	-31.97244516	-8.616091913	12.01914374	0
13.2	0	0	0	-30.80296385	-23.86340635	15.37781861	-30.80296385	-23.86340635	15.37781861	0
13.21	0	0	0	49.46979262	-30.30930716	-22.52346423	49.46979262	-30.30930716	-22.52346423	0
13.22	0	0	0	-14.90206504	-58.72116794	-40.53253117	-14.90206504	-58.72116794	-40.53253117	0
13.23	0	0	0	-66.34748122	-58.64937489	-10.20855824	-66.34748122	-58.64937489	-10.20855824	0
13.24	0	0	0	28.27851471	-52.47926345	-28.31656693	28.27851471	-52.47926345	-28.31656693	0
13.25	0	0	0	-41.83723644	-59.87234376	16.00804537	-41.83723644	-59.87234376	16.00804537	0
13.26	0	0	0	-62.93021557	-65.51570535	18.95295703	-62.93021557	-65.51570535	18.95295703	0
13.27	0	0	0	44.14115166	0.141333271	-1.456107525	44.14115166	0.141333271	-1.456107525	0
13.28	0	0	0	-21.8492558	-10.14637561	23.99630484	-21.8492558	-10.14637561	23.99630484	0
13.29	0	0	0	74.13260898	-0.850055224	19.71167338	74.13260898	-0.850055224	19.71167338	0
13.3	0	0	0	68.99265992	-7.954765667	-17.92623014	68.99265992	-7.954765667	-17.92623014	0
13.31	0	0	0	-53.09228615	-72.49334444	-4.131996013	-53.09228615	-72.49334444	-4.131996013	0
13.32	0	0	0	77.14846218	-65.33036809	-39.07553502	77.14846218	-65.33036809	-39.07553502	0
13.33	0	0	0	29.81477443	-77.64449658	-46.92808674	29.81477443	-77.64449658	-46.92808674	0
13.34	0	0	0	-42.79612866	-50.98282701	38.19408402	-42.79612866	-50.98282701	38.19408402	0
13.35	0	0	0	25.70333912	-61.57729638	9.771432864	25.70333912	-61.57729638	9.771432864	0
13.36	0	0	0	-22.92980934	-32.53411835	-15.9092472	-22.92980934	-32.53411835	-15.9092472	0
13.37	0	0	0	0.35833315	-76.94791416	28.38916827	0.35833315	-76.94791416	28.38916827	0
13.38	0	0	0	-35.20320612	-65.81919196	-48.64133685	-35.20320612	-65.81919196	-48.64133685	0
13.39	0	0	0	51.52189274	-25.65073973	-9.638499317	51.52189274	-25.65073973	-9.638499317	0
13.4	0	0	0	19.80230534	-27.8713939	-34.11887649	19.80230534	-27.8713939	-34.11887649	0
13.41	0	0	0	36.23185283	-31.36837708	-10.15255752	36.23185283	-31.36837708	-10.15255752	0
13.42	0	0	0	6.600039476	6.058530892	-4.892781674	6.600039476	6.058530892	-4.892781674	0
13.43	0	0	0	-34.61331793	-23.21972232	17.41786038	-34.61331793	-23.21972232	17.41786038	0
13.44	0	0	0	48.77232975	-25.99023249	-34.31428618	48.77232975	-25.99023249	-34.31428618	0
13.45	0	0	0	24.25609421	-75.6843838	3.796128446	24.25609421	-75.6843838	3.796128446	0
13.46	0	0	0	35.79150699	-59.69045828	-21.63384985	35.79150699	-59.69045828	-21.63384985	0
13.47	0	0	0	-64.36527503	-47.75638524	37.03883942	-64.36527503	-47.75638524	37.03883942	0
13.48	0	0	0	-65.4995887	-13.7651019	24.50674109	-65.4995887	-13.7651019	24.50674109	0
13.49	0	0	0	-13.72015841	-32.48156342	23.9198516	-13.72015841	-32.48156342	23.9198516	0
13.5	0	0	0	-0.358975478	-16.13313578	-22.59220857	-0.358975478	-16.13313578	-22.59220857	0
13.51	0	0	0	-21.83478458	-35.3926195	5.580604308	-21.83478458	-35.3926195	5.580604308	0
13.52	0	0	0	-4.963352225	-8.533935048	-35.47197325	-4.963352225	-8.533935048	-35.47197325	0
13.53	0	0	0	34.43011624	-61.39357516	1.587730459	34.43011624	-61.39357516	1.587730459	0
13.54	0	0	0	-33.69472884	4.766394639	20.54494374	-33.69472884	4.766394639	20.54494374	0
13.55	0	0	0	-47.1030331	-20.92473268	-25.79635854	-47.1030331	-20.92473268	-25.79635854	0
13.56	0	0	0	68.56985307	-58.0986968	-48.72167343	68.56985307	-58.0986968	-48.72167343	0
13.57	0	0	0	-30.14467438	-54.84716901	-3.039365779	-30.14467438	-54.84716901	-3.039365779	0
13.58	0	0	0	12.60421091	-71.49673291	33.2191765	12.60421091	-71.49673291	33.2191765	0
13.59	0	0	0	-38.5447076	-18.76860752	-3.854735995	-38.5447076	-18.76860752	-3.854735995	0
13.6	0	0	0	-26.43035034	3.79490527	27.30514599	-26.43035034	3.79490527	27.30514599	0
13.61	0	0	0	41.97014184	-28.44448413	-44.01178893	41.97014184	-28.44448413	-44.01178893	0
13.62	0	0	0	64.52851375	1.966225992	37.02424491	64.52851375	1.966225992	37.02424491	0
13.63	0	0	0	-45.09260544	-22.5869694	-18.31114118	-45.09260544	-22.5869694	-18.31114118	0
13.64	0	0	0	56.50510736	7.490903273	-22.78664864	56.50510736	7.490903273	-22.78664864	0
13.65	0	0	0	-51.0857802	-22.63822726	-29.78030582	-51.0857802	-22.63822726	-29.78030582	0
13.66	0	0	0	-7.396954162	-7.926186183	-43.44024628	-7.396954162	-7.926186183	-43.44024628	0
13.67	0	0	0	-27.76792178	-0.857656063	-33.39017007	-27.76792178	-0.857656063	-33.39017007	0
13.68	0	0	0	36.38920745	6.11092649	33.72138139	36.38920745	6.11092649	33.72138139	0
13.69	0	0	0	18.41604149	-52.04752632	-6.159615628	18.41604149	-52.04752632	-6.159615628	0
13.7	0	0	0	24.31921146	-25.601732	-28.56857794	24.31921146	-25.601732	-28.56857794	0
13.71	0	0	0	68.65279926	-55.31890783	34.65708549	68.65279926	-55.31890783	34.65708549	0
13.72	0	0	0	-33.55048627	-73.42609672	-4.592837991	-33.55048627	-73.42609672	-4.592837991	0
13.73	0	0	0	38.06299269	-66.92856306	-40.27825815	38.06299269	-66.92856306	-40.27825815	0
13.74	0	0	0	26.70286105	-50.70355987	34.07539236	26.70286105	-50.70355987	34.07539236	0
13.75	0	0	0	-51.78505904	-30.30876799	-5.728509342	-51.78505904	-30.30876799	-5.728509342	0
13.76	0	0	0	-17.99870928	-64.01103763	-42.36703828	-17.99870928	-64.01103763	-42.36703828	0
13.77	0	0	0	69.37823237	-29.96810047	-9.773105207	69.37823237	-29.96810047	-9.773105207	0
13.78	0	0	0	-10.56291824	-20.17931057	15.11206945	-10.56291824	-20.17931057	15.11206945	0
13.79	0	0	0	-41.46825082	-31.06116552	-39.28375362	-41.46825082	-31.06116552	-39.28375362	0
13.8	0	0	0	18.80619097	-0.976540686	-5.811396415	18.80619097	-0.976540686	-5.811396415	0
13.81	0	0	0	-14.73894799	-72.70549545	-43.30688839	-14.73894799	-72.70549545	-43.30688839	0
13.82	0	0	0	-44.95403193	-77.55318263	-22.96276103	-44.95403193	-77.55318263	-22.96276103	0
13.83	0	0	0	23.95531173	-20.85321716	38.31820498	23.95531173	-20.85321716	38.31820498	0
13.84	0	0	0	9.122809183	-64.64446077	11.49311604	9.122809183	-64.64446077	11.49311604	0
